<?xml version="1.0" encoding="utf-8"?>
<!-- Generator: Adobe Illustrator 19.2.0, SVG Export Plug-In . SVG Version: 6.00 Build 0)  -->
<svg version="1.1" id="Layer_1" xmlns="http://www.w3.org/2000/svg" xmlns:xlink="http://www.w3.org/1999/xlink" x="0px" y="0px"
	 viewBox="0 0 64 70" style="enable-background:new 0 0 64 70;" xml:space="preserve">
<style type="text/css">
	.st0{fill:#343D40;}
</style>
<g id="LWPOLYLINE_29_">
	<path class="st0" d="M37.9,3.2c-2.1,2.7-3.6,5.7-4.7,8.7c0,0.2-0.2,0.3-0.5,0.3h-1.4c-0.2,0-0.4-0.1-0.5-0.3c-1-3-2.6-5.9-4.7-8.7
		c-0.1-0.2,0-0.3,0.2-0.4l1.2-0.5c0.2-0.1,0.5-0.1,0.7,0.1c1.2,1.2,2.3,2.4,3.5,3.6c0.1,0.2,0.4,0.2,0.7,0.1c0.1,0,0.1-0.1,0.1-0.1
		c1.1-1.2,2.3-2.4,3.5-3.6c0.2-0.2,0.4-0.2,0.7-0.1l1.2,0.5C37.9,2.9,38,3.1,37.9,3.2z"/>
</g>
<g id="LWPOLYLINE_28_">
	<path class="st0" d="M48,56.7c-0.5,0.2-1,0.1-1.4-0.2c-0.5-0.5-0.4-1.2,0-1.7c5.4-5.4,8.7-12.7,9.4-20.4c0.1-0.6,0.5-1.1,1.1-1.1
		l4-0.1l0,0c0.4,0,0.7,0.3,0.8,0.7C62.2,43.6,56.7,52.5,48,56.7z"/>
</g>
<g id="LWPOLYLINE_27_">
	<path class="st0" d="M16,56.7c0.5,0.2,1,0.1,1.4-0.2c0.5-0.5,0.4-1.2,0-1.7c-5.4-5.4-8.7-12.7-9.4-20.4c-0.1-0.6-0.5-1.1-1.1-1.1
		l-4-0.1l0,0c-0.4,0-0.7,0.3-0.8,0.7C1.8,43.6,7.3,52.5,16,56.7z"/>
</g>
<path class="st0" d="M53.8,25.6c-0.9-5.9-5.5-10.6-11.3-11.7c-6.9-1.2-14-1.2-20.9,0c-5.9,1.1-10.4,5.8-11.3,11.7
	C8.9,37,13,48.5,21.3,56.4c5.9,5.9,15.5,5.9,21.5,0C51.1,48.5,55.2,37,53.8,25.6z M34.6,40.5c-0.8,0-1.5-0.7-1.5-1.5
	c0-0.8,0.7-1.5,1.5-1.5c0.8,0,1.5,0.7,1.5,1.5C36.1,39.9,35.4,40.5,34.6,40.5z M39.1,40.5c-0.8,0-1.5-0.7-1.5-1.5
	c0-0.8,0.7-1.5,1.5-1.5c0.8,0,1.5,0.7,1.5,1.5C40.6,39.9,39.9,40.5,39.1,40.5z M43.6,40.5c-0.8,0-1.5-0.7-1.5-1.5
	c0-0.8,0.7-1.5,1.5-1.5c0.8,0,1.5,0.7,1.5,1.5C45.1,39.9,44.4,40.5,43.6,40.5z M46.4,30.9c-0.3,0.1-0.6,0.1-0.9,0.1
	c-8.9-1.4-17.9-1.4-26.7,0.2c-0.3,0.1-0.7,0-1-0.1c-2-0.8-3.3-2.8-3.2-5c0.2-4.4,3.3-8.1,7.7-9c6.6-1.1,13.3-1.1,19.8,0
	c4.3,0.8,7.5,4.6,7.7,9C49.8,28.2,48.4,30.2,46.4,30.9z"/>
<ellipse class="st0" cx="22.5" cy="24.5" rx="2.2" ry="2.2"/>
<ellipse class="st0" cx="41.6" cy="24.5" rx="2.2" ry="2.2"/>
<g id="LWPOLYLINE_26_">
	<path class="st0" d="M42.6,66.2c0,0.6-0.4,1.1-1,1.2c-6.4,0.5-12.8,0.5-19.2,0c-0.3,0-0.5-0.1-0.7-0.3c-0.4-0.4-0.4-1.1,0-1.6
		l4.3-4.1c0.1-0.1,0.4-0.2,0.6-0.1c3.5,1.2,7.3,1.2,10.8,0c0.2-0.1,0.4,0,0.6,0.1l4.3,4.1C42.5,65.7,42.6,65.9,42.6,66.2z"/>
</g>
</svg>
