<?xml version="1.0" encoding="UTF-8"?>
<svg width="10px" height="11px" viewBox="0 0 10 11" version="1.1" xmlns="http://www.w3.org/2000/svg" xmlns:xlink="http://www.w3.org/1999/xlink">
    <!-- Generator: Sketch 42 (36781) - http://www.bohemiancoding.com/sketch -->
    <title>flaticon1485952130-svg</title>
    <desc>Created with Sketch.</desc>
    <defs></defs>
    <g id="Page-1" stroke="none" stroke-width="1" fill="none" fill-rule="evenodd">
        <g id="flaticon1485952130-svg" fill-rule="nonzero" fill="#F2F2F2">
            <g id="Capa_1">
                <path d="M9.89761404,9.78192982 L5.22905263,5.11368421 C5.16235088,5.04691228 5.08561404,5.01347368 4.99880702,5.01347368 C4.912,5.01347368 4.83512281,5.04691228 4.76838596,5.11368421 L0.100210526,9.78192982 C0.0333333333,9.84880702 0,9.92554386 0,10.012386 C0,10.099193 0.0334385965,10.1760351 0.100210526,10.2427719 L0.600982456,10.7435088 C0.667754386,10.8102807 0.744596491,10.8436491 0.831403509,10.8436491 C0.918210526,10.8436491 0.995052632,10.8102807 1.06182456,10.7435088 L4.99880702,6.80659649 L8.93592982,10.7437544 C9.00266667,10.8105263 9.07954386,10.8436842 9.16621053,10.8436842 C9.25315789,10.8436842 9.33,10.8103158 9.39673684,10.7437544 L9.89757895,10.242807 C9.96431579,10.1760702 9.99747368,10.099193 9.99747368,10.0124211 C9.99750877,9.92554386 9.96435088,9.84870175 9.89761404,9.78192982 Z" id="Shape"></path>
                <path d="M9.89761404,4.76845614 L5.22905263,0.100210526 C5.16235088,0.0334385965 5.08561404,0 4.99880702,0 C4.912,0 4.83512281,0.0334385965 4.76838596,0.100210526 L0.100210526,4.76845614 C0.0333333333,4.83533333 0,4.91207018 0,4.99891228 C0,5.0857193 0.0334385965,5.1625614 0.100210526,5.22929825 L0.600982456,5.73003509 C0.667754386,5.79680702 0.744596491,5.83017544 0.831403509,5.83017544 C0.918210526,5.83017544 0.995052632,5.79680702 1.06182456,5.73003509 L4.99880702,1.79312281 L8.93592982,5.7302807 C9.00266667,5.79705263 9.07954386,5.83021053 9.16621053,5.83021053 C9.25315789,5.83021053 9.33,5.79684211 9.39673684,5.7302807 L9.89757895,5.22933333 C9.96431579,5.16259649 9.99747368,5.0857193 9.99747368,4.99894737 C9.99750877,4.91207018 9.96435088,4.83522807 9.89761404,4.76845614 Z" id="Shape" transform="translate(4.998737, 2.915105) rotate(-180.000000) translate(-4.998737, -2.915105) "></path>
            </g>
        </g>
    </g>
</svg>