<?xml version="1.0" encoding="UTF-8"?>
<svg width="10px" height="6px" viewBox="0 0 10 6" version="1.1" xmlns="http://www.w3.org/2000/svg" xmlns:xlink="http://www.w3.org/1999/xlink">
    <!-- Generator: Sketch 42 (36781) - http://www.bohemiancoding.com/sketch -->
    <title>flaticon1485952130-svg</title>
    <desc>Created with Sketch.</desc>
    <defs></defs>
    <g id="Page-1" stroke="none" stroke-width="1" fill="none" fill-rule="evenodd">
        <g id="flaticon1485952130-svg" fill-rule="nonzero" fill="#F2F2F2">
            <g id="Capa_1">
                <path d="M9.89761404,4.78192982 L5.22905263,0.113684211 C5.16235088,0.0469122807 5.08561404,0.0134736842 4.99880702,0.0134736842 C4.912,0.0134736842 4.83512281,0.0469122807 4.76838596,0.113684211 L0.100210526,4.78192982 C0.0333333333,4.84880702 0,4.92554386 0,5.01238596 C0,5.09919298 0.0334385965,5.17603509 0.100210526,5.24277193 L0.600982456,5.74350877 C0.667754386,5.8102807 0.744596491,5.84364912 0.831403509,5.84364912 C0.918210526,5.84364912 0.995052632,5.8102807 1.06182456,5.74350877 L4.99880702,1.80659649 L8.93592982,5.74375439 C9.00266667,5.81052632 9.07954386,5.84368421 9.16621053,5.84368421 C9.25315789,5.84368421 9.33,5.81031579 9.39673684,5.74375439 L9.89757895,5.24280702 C9.96431579,5.17607018 9.99747368,5.09919298 9.99747368,5.01242105 C9.99750877,4.92554386 9.96435088,4.84870175 9.89761404,4.78192982 Z" id="Shape"></path>
            </g>
        </g>
    </g>
</svg>